<?xml version="1.0" encoding="UTF-8"?>
<svg width="51px" height="49px" viewBox="0 0 51 49" version="1.1" xmlns="http://www.w3.org/2000/svg" xmlns:xlink="http://www.w3.org/1999/xlink">
    <!-- Generator: Sketch 56.3 (81716) - https://sketch.com -->
    <title>Artboard</title>
    <desc>Created with Sketch.</desc>
    <defs>
        <filter x="-26.1%" y="-27.3%" width="152.5%" height="154.5%" filterUnits="objectBoundingBox" id="filter-1">
            <feOffset dx="2" dy="2" in="SourceAlpha" result="shadowOffsetOuter1"></feOffset>
            <feGaussianBlur stdDeviation="2" in="shadowOffsetOuter1" result="shadowBlurOuter1"></feGaussianBlur>
            <feColorMatrix values="0 0 0 0 0   0 0 0 0 0   0 0 0 0 0  0 0 0 0.5 0" type="matrix" in="shadowBlurOuter1" result="shadowMatrixOuter1"></feColorMatrix>
            <feMerge>
                <feMergeNode in="shadowMatrixOuter1"></feMergeNode>
                <feMergeNode in="SourceGraphic"></feMergeNode>
            </feMerge>
        </filter>
    </defs>
    <g id="Artboard" stroke="none" stroke-width="1" fill="none" fill-rule="evenodd">
        <g id="spotify" filter="url(#filter-1)" transform="translate(3.000000, 1.000000)" fill="#FFFFFF" fill-rule="nonzero">
            <path d="M22.9476402,0 C10.2943065,0 0,9.86609836 0,21.9932197 C0,34.1278426 10.2943065,44 22.9476402,44 C35.6107587,44 45.9130435,34.1278426 45.9130435,21.9932197 C45.9130435,9.86609836 35.6107587,0 22.9476402,0 Z M11.3021354,30.0743607 C13.9626834,29.2982295 16.6905203,28.904682 19.4094757,28.904682 C24.0272741,28.904682 28.586063,30.026177 32.5950996,32.149141 C32.8335464,32.2736393 33.0503162,32.6853639 33.1475615,33.1979279 C33.2448068,33.7103475 33.2061195,34.2373377 33.0500151,34.5114361 C32.8529654,34.8631475 32.4531455,35.0905049 32.0311971,35.0905049 C31.8221046,35.0905049 31.6383019,35.0454951 31.4544992,34.950282 C27.7742301,33.0116852 23.6092396,31.9868459 19.4094757,31.9868459 C16.8722155,31.9868459 14.38132,32.3467803 12.0081426,33.0556852 C11.892532,33.0892984 11.7736097,33.1064656 11.6546874,33.1064656 C11.1350421,33.1066098 10.6840405,32.789377 10.5327532,32.3186492 C10.3284778,31.6750951 10.7510284,30.2470426 11.3021354,30.0743607 Z M10.3010805,21.9715803 C13.266461,21.1990557 16.3310438,20.8072393 19.4096262,20.8072393 C24.9440297,20.8072393 30.4397457,22.0905967 35.3062272,24.5204066 C35.6473386,24.6863082 35.8987313,24.9676197 36.0138902,25.3124066 C36.1307051,25.6616656 36.09548,26.0371803 35.9131826,26.3723016 C35.4788904,27.1868066 34.9712878,27.7341377 34.649746,27.7341377 C34.4218366,27.7341377 34.2019056,27.6817705 33.9828778,27.5768918 C29.4639806,25.3217836 24.5609192,24.1783607 19.4094757,24.1783607 C16.5440502,24.1783607 13.7328171,24.5394492 11.056463,25.2509508 C10.9319709,25.2832656 10.8041671,25.2995672 10.6769654,25.2995672 C10.033129,25.2997115 9.46576422,24.8829377 9.29776764,24.2878557 C9.08265374,23.5138885 9.57414911,22.1609967 10.3010805,21.9715803 Z M10.0447202,16.6775869 C9.90878746,16.7097574 9.76984405,16.7259148 9.63165331,16.7259148 C8.85354013,16.726059 8.17929579,16.2221508 7.99203079,15.5015607 C7.7573474,14.5893902 8.35286215,13.5297836 9.2152747,13.3216131 C12.5693354,12.5320656 15.999115,12.1317377 19.4094757,12.1317377 C26.0113197,12.1317377 32.3339222,13.5541639 38.2038671,16.3603541 C38.6115148,16.5530885 38.915444,16.8857574 39.0599572,17.2970492 C39.2044704,17.7087738 39.1725571,18.1519475 38.9708408,18.5434754 C38.6959646,19.0707541 38.1019552,19.6384262 37.4472804,19.6384262 C37.1948339,19.6384262 36.9356134,19.5817311 36.7060482,19.4784393 C31.3140505,16.8931148 25.4946851,15.5822033 19.4096262,15.5822033 C16.2824211,15.5823475 13.1317326,15.9507934 10.0447202,16.6775869 Z" id="XMLID_86_"></path>
        </g>
    </g>
</svg>